<svg width="31" height="31" viewBox="0 0 31 31" fill="none" xmlns="http://www.w3.org/2000/svg">
<path d="M28.0938 4.84375H24.4549C24.3907 4.84375 24.329 4.81823 24.2836 4.77282C24.2382 4.7274 24.2127 4.66579 24.2127 4.60156V3.87016C24.2114 3.35714 24.0067 2.86557 23.6435 2.50327C23.2803 2.14096 22.7882 1.9375 22.2752 1.9375L8.72541 1.95324C8.21292 1.9542 7.72168 2.15817 7.35923 2.5205C6.99679 2.88284 6.79266 3.37401 6.79154 3.8865V4.60156C6.79154 4.66579 6.76603 4.7274 6.72061 4.77282C6.67519 4.81823 6.61359 4.84375 6.54936 4.84375H2.90625C2.64932 4.84375 2.40292 4.94581 2.22124 5.12749C2.03956 5.30917 1.9375 5.55557 1.9375 5.8125V6.78125C1.9375 10.0829 3.75391 13.5897 6.57055 14.3708C6.65383 14.394 6.72918 14.4395 6.78842 14.5025C6.84766 14.5655 6.88852 14.6435 6.90658 14.728C7.25594 16.3561 8.33064 17.9067 10.0193 19.1849C11.2853 20.1433 12.7954 20.8499 14.1528 21.1514C14.2602 21.1755 14.3561 21.2354 14.4249 21.3212C14.4936 21.407 14.5312 21.5137 14.5312 21.6237V26.8828C14.5312 26.947 14.5057 27.0086 14.4603 27.0541C14.4149 27.0995 14.3533 27.125 14.2891 27.125H10.6835C10.1622 27.125 9.71475 27.5258 9.68871 28.0471C9.6824 28.1781 9.70275 28.309 9.74852 28.4319C9.7943 28.5548 9.86454 28.6671 9.95501 28.762C10.0455 28.857 10.1543 28.9326 10.2748 28.9842C10.3953 29.0359 10.5251 29.0625 10.6562 29.0625H20.3165C20.8378 29.0625 21.2853 28.6617 21.3113 28.1404C21.3176 28.0094 21.2973 27.8785 21.2515 27.7556C21.2057 27.6327 21.1355 27.5204 21.045 27.4255C20.9545 27.3305 20.8457 27.2549 20.7252 27.2033C20.6047 27.1516 20.4749 27.125 20.3438 27.125H16.7109C16.6467 27.125 16.5851 27.0995 16.5397 27.0541C16.4943 27.0086 16.4688 26.947 16.4688 26.8828V21.6237C16.4688 21.5137 16.5064 21.407 16.5751 21.3212C16.6439 21.2354 16.7398 21.1755 16.8472 21.1514C18.2046 20.8487 19.7147 20.1433 20.9807 19.1849C22.6694 17.9067 23.7441 16.3561 24.0934 14.728C24.1115 14.6435 24.1523 14.5655 24.2116 14.5025C24.2708 14.4395 24.3462 14.394 24.4295 14.3708C27.2461 13.5897 29.0625 10.0829 29.0625 6.78125V5.8125C29.0625 5.55557 28.9604 5.30917 28.7788 5.12749C28.5971 4.94581 28.3507 4.84375 28.0938 4.84375ZM6.78125 12.0016C6.7811 12.044 6.7698 12.0857 6.74848 12.1224C6.72717 12.1591 6.69658 12.1895 6.65979 12.2107C6.623 12.2319 6.58129 12.243 6.53885 12.2429C6.49641 12.2429 6.45472 12.2317 6.41797 12.2105C5.79676 11.8405 5.34326 11.2799 5.07746 10.8851C4.35635 9.81404 3.92707 8.42268 3.87924 7.03252C3.87802 6.99996 3.88338 6.96749 3.895 6.93705C3.90662 6.90661 3.92427 6.87883 3.94688 6.85537C3.96949 6.83191 3.99661 6.81325 4.0266 6.80051C4.05659 6.78778 4.08884 6.78123 4.12143 6.78125H6.5433C6.60753 6.78125 6.66913 6.80677 6.71455 6.85218C6.75997 6.8976 6.78549 6.95921 6.78549 7.02344C6.78428 8.68545 6.78125 10.5878 6.78125 12.0016ZM25.9219 10.8851C25.6561 11.2799 25.2032 11.8405 24.582 12.2105C24.5452 12.2317 24.5035 12.2429 24.461 12.2429C24.4185 12.2429 24.3768 12.2318 24.34 12.2106C24.3031 12.1893 24.2726 12.1588 24.2513 12.122C24.23 12.0852 24.2188 12.0435 24.2188 12.001C24.2188 10.3959 24.2188 8.57223 24.2157 7.02344C24.2157 6.95921 24.2412 6.8976 24.2867 6.85218C24.3321 6.80677 24.3937 6.78125 24.4579 6.78125H26.8798C26.9124 6.78123 26.9446 6.78778 26.9746 6.80051C27.0046 6.81325 27.0317 6.83191 27.0543 6.85537C27.0769 6.87883 27.0946 6.90661 27.1062 6.93705C27.1178 6.96749 27.1232 6.99996 27.122 7.03252C27.0741 8.42268 26.6437 9.81404 25.9225 10.8851H25.9219Z" fill="#383838"/>
</svg>
