<svg width="29" height="29" viewBox="0 0 29 29" fill="none" xmlns="http://www.w3.org/2000/svg">
<path d="M11.455 4.1914C9.40858 3.21435 6.54823 2.73574 2.71875 2.71874C2.35759 2.71384 2.00352 2.81915 1.70375 3.02064C1.4577 3.18695 1.25628 3.41118 1.11722 3.6736C0.97816 3.93602 0.905713 4.22859 0.906253 4.52558V20.7305C0.906253 21.8259 1.68563 22.6523 2.71875 22.6523C6.7442 22.6523 10.7821 23.0284 13.2007 25.3144C13.2338 25.3458 13.2753 25.3668 13.3203 25.3748C13.3652 25.3828 13.4115 25.3774 13.4533 25.3593C13.4952 25.3412 13.5308 25.3111 13.5558 25.273C13.5808 25.2348 13.594 25.1901 13.5938 25.1445V6.05035C13.5939 5.92152 13.5663 5.79417 13.5129 5.67691C13.4596 5.55966 13.3817 5.45522 13.2845 5.37066C12.7305 4.89705 12.1151 4.50038 11.455 4.1914ZM27.2963 3.01894C26.9963 2.81795 26.6422 2.71323 26.2813 2.71874C22.4518 2.73574 19.5914 3.21208 17.545 4.1914C16.8849 4.49982 16.2694 4.89571 15.7149 5.36839C15.618 5.4531 15.5403 5.55758 15.487 5.67481C15.4338 5.79205 15.4062 5.91932 15.4063 6.04808V25.1433C15.4062 25.1872 15.4191 25.23 15.4434 25.2666C15.4676 25.3031 15.5021 25.3317 15.5425 25.3487C15.583 25.3657 15.6275 25.3703 15.6705 25.3621C15.7136 25.3539 15.7533 25.3332 15.7846 25.3025C17.2386 23.8582 19.7902 22.6506 26.2835 22.6511C26.7642 22.6511 27.2252 22.4602 27.5652 22.1203C27.9051 21.7804 28.096 21.3194 28.096 20.8386V4.52615C28.0967 4.22857 28.0241 3.93541 27.8846 3.67255C27.7451 3.40969 27.543 3.18521 27.2963 3.01894Z" fill="#383838"/>
</svg>
