<svg width="31" height="17" viewBox="0 0 31 17" fill="none" xmlns="http://www.w3.org/2000/svg">
<path d="M19.283 15.0625H23.1562C24.8967 15.0625 26.5659 14.3711 27.7966 13.1404C29.0273 11.9097 29.7188 10.2405 29.7188 8.5C29.7188 6.75952 29.0273 5.09032 27.7966 3.85961C26.5659 2.6289 24.8967 1.9375 23.1562 1.9375H19.3685M11.6315 1.9375H7.84375C6.10327 1.9375 4.43407 2.6289 3.20336 3.85961C1.97265 5.09032 1.28125 6.75952 1.28125 8.5C1.28125 10.2405 1.97265 11.9097 3.20336 13.1404C4.43407 14.3711 6.10327 15.0625 7.84375 15.0625H11.717M21.4425 8.5H9.4208" stroke="#383838" stroke-width="2" stroke-linecap="round" stroke-linejoin="round"/>
</svg>
