<svg width="27" height="27" viewBox="0 0 27 27" fill="none" xmlns="http://www.w3.org/2000/svg">
<path d="M13.6869 0.0937445C6.14721 -0.00809148 -0.00806095 6.14718 0.093775 13.6869C0.194322 20.9179 6.08212 26.8057 13.3131 26.9062C20.8541 27.0094 27.0081 20.8541 26.905 13.3144C26.8057 6.08209 20.9179 0.194291 13.6869 0.0937445ZM21.8351 21.186C21.8094 21.2138 21.778 21.2356 21.7429 21.2498C21.7079 21.2641 21.6702 21.2704 21.6324 21.2685C21.5946 21.2665 21.5578 21.2562 21.5244 21.2384C21.491 21.2206 21.462 21.1957 21.4394 21.1654C20.8629 20.4111 20.1569 19.7654 19.3543 19.2582C17.7133 18.2051 15.6341 17.625 13.5 17.625C11.366 17.625 9.28672 18.2051 7.64575 19.2582C6.84322 19.7651 6.13722 20.4107 5.56069 21.1648C5.53804 21.195 5.50901 21.22 5.47565 21.2378C5.44229 21.2556 5.40542 21.2658 5.36765 21.2678C5.32989 21.2698 5.29215 21.2634 5.25712 21.2492C5.22209 21.2349 5.19062 21.2132 5.16495 21.1854C3.27368 19.1437 2.20236 16.476 2.15627 13.6934C2.05122 7.42142 7.1978 2.17171 13.4723 2.15624C19.7468 2.14078 24.8438 7.2358 24.8438 13.5C24.8459 16.3497 23.7713 19.0951 21.8351 21.186Z" fill="#383838"/>
<path d="M13.5 6.28125C12.229 6.28125 11.0798 6.75756 10.2632 7.62316C9.44655 8.48877 9.03856 9.68566 9.13073 10.9702C9.31764 13.5 11.2777 15.5625 13.5 15.5625C15.7224 15.5625 17.6785 13.5 17.8693 10.9709C17.9647 9.69855 17.5599 8.51262 16.7298 7.6309C15.9099 6.76078 14.7626 6.28125 13.5 6.28125Z" fill="#383838"/>
</svg>
