<svg width="29" height="29" viewBox="0 0 29 29" fill="none" xmlns="http://www.w3.org/2000/svg">
<path d="M12.6875 26.2813H16.3125C16.5528 26.2813 16.7833 26.3768 16.9533 26.5467C17.1232 26.7167 17.2187 26.9472 17.2187 27.1875C17.2187 27.4279 17.1232 27.6584 16.9533 27.8283C16.7833 27.9983 16.5528 28.0938 16.3125 28.0938H12.6875C12.4471 28.0938 12.2166 27.9983 12.0467 27.8283C11.8767 27.6584 11.7812 27.4279 11.7812 27.1875C11.7812 26.9472 11.8767 26.7167 12.0467 26.5467C12.2166 26.3768 12.4471 26.2813 12.6875 26.2813ZM11.7812 23.5625H17.2187C17.4591 23.5625 17.6896 23.658 17.8595 23.828C18.0295 23.9979 18.125 24.2284 18.125 24.4688C18.125 24.7091 18.0295 24.9396 17.8595 25.1096C17.6896 25.2795 17.4591 25.375 17.2187 25.375H11.7812C11.5409 25.375 11.3104 25.2795 11.1404 25.1096C10.9705 24.9396 10.875 24.7091 10.875 24.4688C10.875 24.2284 10.9705 23.9979 11.1404 23.828C11.3104 23.658 11.5409 23.5625 11.7812 23.5625ZM8.07579 3.55083C9.77898 1.84538 12.0605 0.906276 14.5 0.906276C15.6909 0.903437 16.8706 1.13591 17.9714 1.59034C19.0722 2.04476 20.0724 2.71219 20.9145 3.55429C21.7566 4.39639 22.424 5.39656 22.8784 6.49735C23.3328 7.59815 23.5653 8.77787 23.5625 9.96878C23.5625 12.6094 22.5503 15.0795 20.7871 16.7453L20.5401 16.9769C19.52 17.9307 18.125 19.2374 18.125 20.3906V21.75C18.125 21.9904 18.0295 22.2209 17.8595 22.3908C17.6896 22.5608 17.4591 22.6563 17.2187 22.6563H15.8593C15.7392 22.6563 15.6239 22.6085 15.5389 22.5236C15.454 22.4386 15.4062 22.3233 15.4062 22.2031V15.566C15.4062 15.4744 15.4339 15.3849 15.4858 15.3093C15.5377 15.2338 15.6113 15.1758 15.6968 15.1429C16.2201 14.9294 16.7172 14.6567 17.1785 14.3301C17.2822 14.2639 17.3713 14.1773 17.4404 14.0756C17.5095 13.9738 17.5572 13.8591 17.5805 13.7384C17.6039 13.6176 17.6024 13.4934 17.5762 13.3732C17.55 13.253 17.4996 13.1395 17.4281 13.0394C17.3566 12.9393 17.2655 12.8549 17.1603 12.7912C17.0551 12.7274 16.938 12.6858 16.8162 12.6688C16.6944 12.6518 16.5704 12.6597 16.4518 12.6921C16.3331 12.7246 16.2223 12.7808 16.1261 12.8574C15.707 13.1542 14.8999 13.5938 14.5 13.5938C14.1001 13.5938 13.293 13.1531 12.8727 12.8574C12.677 12.7344 12.4417 12.6908 12.2149 12.7356C11.9882 12.7803 11.787 12.91 11.6527 13.0981C11.5185 13.2863 11.4611 13.5186 11.4925 13.7476C11.5238 13.9766 11.6415 14.185 11.8214 14.3301C12.2828 14.6561 12.7799 14.9282 13.3032 15.1412C13.3887 15.1741 13.4622 15.2321 13.5141 15.3076C13.566 15.3832 13.5938 15.4727 13.5937 15.5643V22.2031C13.5937 22.3233 13.546 22.4386 13.461 22.5236C13.376 22.6085 13.2608 22.6563 13.1406 22.6563H11.7812C11.5409 22.6563 11.3104 22.5608 11.1404 22.3908C10.9705 22.2209 10.875 21.9904 10.875 21.75V20.3906C10.875 19.2646 9.49521 17.9591 8.48757 17.0052L8.20947 16.7413C6.39583 15.0098 5.43747 12.6654 5.43747 9.96878C5.43147 8.77776 5.66154 7.59736 6.11438 6.49578C6.56723 5.3942 7.23387 4.39327 8.07579 3.55083Z" fill="#383838"/>
</svg>
