<svg width="30" height="30" viewBox="0 0 30 30" fill="none" xmlns="http://www.w3.org/2000/svg">
<path d="M16.4156 14.226L14.8857 12.6955C14.5353 12.345 14.0603 12.1475 13.5647 12.1462C13.0691 12.1449 12.5931 12.3398 12.2408 12.6885L1.60427 22.5047C1.21696 22.8697 0.962666 23.335 0.939229 23.8559C0.927952 24.1142 0.970053 24.3721 1.0629 24.6135C1.15575 24.8548 1.29736 25.0744 1.47888 25.2586L3.76403 27.5689C3.76525 27.5705 3.76662 27.5718 3.76813 27.573C4.12126 27.925 4.59905 28.1234 5.09763 28.125H5.16677C5.68767 28.1057 6.15407 27.8613 6.52439 27.4705L16.4092 16.8826C16.5844 16.7088 16.7237 16.5022 16.8189 16.2745C16.9141 16.0467 16.9635 15.8025 16.9641 15.5556C16.9646 15.3088 16.9165 15.0643 16.8224 14.8361C16.7283 14.608 16.59 14.4006 16.4156 14.226ZM28.7109 11.1328L28.6927 11.1147L26.6847 9.12715C26.5671 9.00992 26.4274 8.91715 26.2738 8.85419C26.1201 8.79124 25.9555 8.75934 25.7894 8.76035C25.5204 8.76061 25.2582 8.84547 25.04 9.00293C25.04 8.97774 25.0435 8.95313 25.0453 8.93145C25.0717 8.55059 25.1127 7.9752 24.7406 7.45371C24.2982 6.85746 23.8125 6.29461 23.2875 5.76973C23.2861 5.76802 23.2845 5.76645 23.2828 5.76504C22.5023 4.99629 20.8037 3.54844 18.2015 2.48731C17.2147 2.08228 16.1581 1.87428 15.0914 1.875C13.2422 1.875 11.8359 2.70938 11.2974 3.20391C10.9925 3.49513 10.7145 3.81321 10.4666 4.1543C10.3481 4.31776 10.2856 4.51507 10.2884 4.7169C10.2911 4.91873 10.3588 5.1143 10.4816 5.27452C10.6044 5.43475 10.7756 5.55107 10.9697 5.60619C11.1639 5.66131 11.3707 5.65229 11.5593 5.58047C11.7237 5.51904 11.8916 5.46758 12.0621 5.42637C12.4172 5.35126 12.7814 5.32856 13.1431 5.35899C13.916 5.42285 14.83 5.80664 15.2343 6.12598C15.9199 6.67735 16.2498 7.42031 16.3043 8.5336C16.3148 8.75742 15.8519 9.59649 15.1324 10.5539C14.9953 10.7346 14.9284 10.9588 14.944 11.1851C14.9597 11.4113 15.0568 11.6242 15.2174 11.7844L17.2336 13.8006C17.403 13.9704 17.6311 14.0688 17.8709 14.0756C18.1106 14.0824 18.3439 13.9969 18.5226 13.8369C19.0927 13.3277 19.9611 12.5602 20.2646 12.3721C20.7152 12.0949 21.0375 12.0416 21.1259 12.0322C21.3555 12.0097 21.5865 12.0584 21.7875 12.1717C21.7885 12.1817 21.7874 12.1918 21.7842 12.2014C21.7811 12.211 21.776 12.2198 21.7693 12.2273L21.6627 12.3287L21.6451 12.3451C21.5273 12.4625 21.4338 12.6021 21.3701 12.7557C21.3065 12.9094 21.2738 13.0741 21.2741 13.2405C21.2744 13.4068 21.3076 13.5714 21.3717 13.7249C21.4359 13.8783 21.5298 14.0176 21.648 14.1346L23.6554 16.1215C23.7731 16.2386 23.9128 16.3313 24.0665 16.3942C24.2201 16.457 24.3847 16.4888 24.5508 16.4877C24.8841 16.4882 25.2044 16.3577 25.4425 16.1244L28.6945 12.9123C28.7056 12.9012 28.7168 12.8895 28.7273 12.8777C28.9455 12.6386 29.0651 12.3257 29.062 12.0021C29.059 11.6784 28.9335 11.3678 28.7109 11.1328Z" fill="#383838"/>
</svg>
