<svg width="31" height="31" viewBox="0 0 31 31" fill="none" xmlns="http://www.w3.org/2000/svg">
<path d="M20.3438 15.5C19.0989 15.5 17.8952 14.9442 16.9531 13.9355C16.0371 12.9516 15.4776 11.6395 15.3789 10.2421C15.2736 8.75145 15.7283 7.38066 16.6589 6.38164C17.5895 5.38262 18.8906 4.84375 20.3438 4.84375C21.7866 4.84375 23.0914 5.3923 24.019 6.38891C24.9556 7.3952 25.4115 8.76355 25.3062 10.2415C25.2051 11.6407 24.6462 12.9522 23.732 13.9349C22.7923 14.9442 21.5892 15.5 20.3438 15.5ZM28.3257 26.1563H12.3625C12.1058 26.1576 11.8523 26.1001 11.6213 25.9881C11.3904 25.8761 11.1883 25.7126 11.0304 25.5102C10.863 25.2908 10.7474 25.0364 10.6923 24.766C10.6371 24.4955 10.6438 24.2162 10.712 23.9487C11.2218 21.9016 12.4848 20.2039 14.3641 19.0396C16.0322 18.0066 18.1556 17.4375 20.3438 17.4375C22.5749 17.4375 24.6426 17.9824 26.3203 19.0147C28.204 20.173 29.4688 21.8804 29.9762 23.9523C30.0435 24.22 30.0494 24.4994 29.9937 24.7696C29.9379 25.0399 29.8218 25.2941 29.6541 25.5132C29.4964 25.7147 29.2947 25.8774 29.0644 25.9888C28.8342 26.1003 28.5815 26.1576 28.3257 26.1563ZM8.9004 15.7422C6.76975 15.7422 4.89643 13.7611 4.72266 11.3265C4.63669 10.0792 5.0254 8.92582 5.81251 8.07998C6.59114 7.24262 7.68946 6.78125 8.9004 6.78125C10.1113 6.78125 11.2012 7.24504 11.984 8.08725C12.7772 8.93975 13.1647 10.0907 13.0739 11.3277C12.9001 13.7617 11.0274 15.7422 8.9004 15.7422ZM12.8759 17.6464C11.8109 17.1257 10.4286 16.8653 8.901 16.8653C7.11729 16.8653 5.38505 17.3303 4.02274 18.1744C2.47819 19.1328 1.43921 20.5284 1.01962 22.2134C0.958213 22.4558 0.952406 22.7089 1.00263 22.9538C1.05285 23.1988 1.1578 23.4292 1.30964 23.6278C1.45371 23.8128 1.63828 23.9622 1.84915 24.0647C2.06002 24.1671 2.29158 24.2198 2.52602 24.2188H9.24673C9.36016 24.2187 9.46999 24.1789 9.55707 24.1062C9.64415 24.0335 9.70295 23.9326 9.72323 23.821C9.72989 23.7828 9.73837 23.7447 9.74805 23.7071C10.2615 21.6449 11.4646 19.9024 13.2422 18.6321C13.3076 18.585 13.3602 18.5223 13.3952 18.4497C13.4302 18.3771 13.4466 18.2969 13.4428 18.2164C13.439 18.1359 13.4152 18.0576 13.3735 17.9886C13.3318 17.9196 13.2736 17.8622 13.2041 17.8214C13.109 17.7657 13 17.7069 12.8759 17.6464Z" fill="#383838"/>
</svg>
