<svg width="31" height="31" viewBox="0 0 31 31" fill="none" xmlns="http://www.w3.org/2000/svg">
<path d="M30.0312 10.6562C30.0301 9.62888 29.6215 8.64391 28.8951 7.91745C28.1686 7.19099 27.1836 6.78237 26.1562 6.78125H23.25V5.8125C23.2492 5.04196 22.9427 4.30321 22.3979 3.75836C21.853 3.2135 21.1143 2.90705 20.3438 2.90625H10.6562C9.88571 2.90705 9.14696 3.2135 8.60211 3.75836C8.05725 4.30321 7.7508 5.04196 7.75 5.8125V6.78125H4.84375C3.81638 6.78237 2.83141 7.19099 2.10495 7.91745C1.37849 8.64391 0.969872 9.62888 0.96875 10.6562V13.5625H30.0312V10.6562ZM21.3125 6.78125H9.6875V5.8125C9.6875 5.55557 9.78956 5.30917 9.97124 5.12749C10.1529 4.94581 10.3993 4.84375 10.6562 4.84375H20.3438C20.6007 4.84375 20.8471 4.94581 21.0288 5.12749C21.2104 5.30917 21.3125 5.55557 21.3125 5.8125V6.78125ZM20.3438 15.9844C20.3438 16.3698 20.1907 16.7394 19.9181 17.0119C19.6456 17.2844 19.276 17.4375 18.8906 17.4375H12.1094C11.724 17.4375 11.3544 17.2844 11.0819 17.0119C10.8093 16.7394 10.6562 16.3698 10.6562 15.9844V15.7422C10.6562 15.678 10.6307 15.6164 10.5853 15.5709C10.5399 15.5255 10.4783 15.5 10.4141 15.5H0.96875V24.2188C0.96875 25.2465 1.37701 26.2321 2.10371 26.9588C2.83041 27.6855 3.81604 28.0938 4.84375 28.0938H26.1562C27.184 28.0938 28.1696 27.6855 28.8963 26.9588C29.623 26.2321 30.0312 25.2465 30.0312 24.2188V15.5H20.5859C20.5217 15.5 20.4601 15.5255 20.4147 15.5709C20.3693 15.6164 20.3438 15.678 20.3438 15.7422V15.9844Z" fill="#383838"/>
</svg>
